<?xml version="1.0" encoding="UTF-8" standalone="no"?>
<!DOCTYPE svg PUBLIC "-//W3C//DTD SVG 1.1//EN" "http://www.w3.org/Graphics/SVG/1.1/DTD/svg11.dtd">
<svg width="100%" height="100%" viewBox="0 0 300 300" version="1.1" xmlns="http://www.w3.org/2000/svg" xmlns:xlink="http://www.w3.org/1999/xlink" xml:space="preserve" xmlns:serif="http://www.serif.com/" style="fill-rule:evenodd;clip-rule:evenodd;stroke-linejoin:round;stroke-miterlimit:2;">
    <g transform="matrix(1,0,0,1,-79.5,32)">
        <g transform="matrix(1.21971,0,0,1.21971,94.9126,-25.9938)">
            <path d="M103.374,27.126C160.143,27.126 206.163,73.147 206.163,129.916C206.163,186.685 160.143,232.705 103.374,232.705C46.605,232.705 0.585,186.685 0.585,129.916C0.585,73.147 46.605,27.126 103.374,27.126Z" style="fill:rgb(28,153,222);"/>
        </g>
        <g transform="matrix(1.21971,0,0,1.21971,94.9126,-25.9938)">
            <path d="M148.487,34.146C147.876,49.44 163.389,55.388 164.123,67.857C162.224,66.159 160.704,63.81 157.927,63.446C162.797,67.808 165.491,73.918 162.276,81.298C161.172,79.185 160.671,78.247 159.51,77.514C159.158,89.304 150.166,97.529 145.241,105.522C144.827,106.195 144.414,106.712 144.456,107.498C144.592,110.048 145.226,112.919 145.743,115.321C158.817,155.646 135.142,194.311 124.72,197.454C124.114,197.637 57.174,150.764 64.292,109.135C63.995,100.876 48.639,94.026 48.199,77.291C47.038,78.023 46.538,78.962 45.434,81.075C42.218,73.695 44.912,67.585 49.782,63.223C47.005,63.587 45.485,65.936 43.586,67.633C44.32,55.164 59.832,49.217 59.222,33.923C52.456,17.226 55.512,9.48 61.166,7.265C67.505,4.781 75.518,10.402 79.786,15.849C90.257,7.807 103.966,7.276 109.197,0.375C108.723,3.999 106.73,8.048 105.166,9.355C110.031,7.553 113.568,3.964 117.259,0.783C116.97,5.202 115.121,9.882 112.564,12.172C118.959,12.931 124.764,14.546 127.923,16.072C133.032,9.393 141.262,4.847 147.806,7.902C153.173,10.407 155.69,18.094 148.487,34.146Z" style="fill:rgb(186,110,66);"/>
        </g>
        <g transform="matrix(1.21971,0,0,1.21971,94.9126,-25.9938)">
            <path d="M164.123,67.857C162.224,66.159 160.704,63.81 157.927,63.446C162.797,67.808 165.491,73.918 162.276,81.298C161.171,79.184 160.671,78.247 159.51,77.514C159.121,90.529 144.046,104.662 144.456,107.498C144.78,109.745 145.263,112.202 145.675,114.317C146.083,116.413 148.298,129.621 144.967,121.907C142.517,116.233 139.814,109.727 147.792,97.047C158.351,80.262 156.692,72.85 156.692,72.85C159.175,73.753 160.065,75.264 161.701,77.216C160.641,68.688 156.636,63.476 153.004,60.633C153.004,60.633 160.351,58.43 164.123,67.857ZM63.696,112.881C63.93,111.185 64.19,109.736 64.292,109.135C63.995,100.877 48.639,94.026 48.2,77.291C47.038,78.023 46.538,78.962 45.434,81.075C42.218,73.695 44.912,67.585 49.782,63.223C47.005,63.587 45.484,65.936 43.586,67.633C43.75,64.844 49.085,60.015 53.031,60.702C50.602,63.901 48.41,68.016 48.056,71.938C49.117,70.928 50.642,70.06 52.536,69.4C51.401,89.238 60.542,90.781 66.749,104.024C69.02,108.868 68.429,112.818 65.472,120.568C65.139,121.44 63.408,114.97 63.696,112.881Z" style="fill:rgb(150,82,41);"/>
        </g>
        <g transform="matrix(1.21971,0,0,1.21971,94.9126,-25.9938)">
            <path d="M90.119,106.222C79.749,99.588 77.043,85.418 78.82,78.153C80.318,72.033 82.861,67.975 85.773,64.753C89.663,60.448 92.49,55.844 97.411,53.936C100.674,52.673 107.278,52.703 110.507,54.02C115.299,55.975 118.101,60.51 121.936,64.753C124.847,67.975 127.391,72.033 128.889,78.153C130.811,86.013 127.486,101.956 114.886,107.692C107.624,110.998 96.765,110.473 90.119,106.222Z" style="fill:rgb(242,204,158);"/>
        </g>
        <g transform="matrix(1.21971,0,0,1.21971,94.9126,-25.9938)">
            <path d="M73.773,20.648C73.767,20.656 69.901,20.653 67.82,21.76C68.501,21.795 69.964,22.034 70.469,22.69C69.785,22.458 66.838,23.623 65.866,24.476C67.418,24.411 68.766,24.612 69.925,25.062C66.932,27.369 64.834,30.1 63.029,32.97C63.029,32.97 58.453,26.921 58.065,20.519C57.657,13.775 61.056,11.271 63.201,11.155C67.655,10.914 69.658,19.284 73.773,20.648Z" style="fill:rgb(140,69,48);"/>
        </g>
        <g transform="matrix(1.21971,0,0,1.21971,94.9126,-25.9938)">
            <path d="M117.894,66.736C115.713,59.802 109.492,60.515 103.501,60.537C97.212,60.56 91.157,60.975 89.678,67.649C88.349,73.647 97.875,81.447 104.548,81.234C111.228,81.02 119.765,72.687 117.894,66.736Z"/>
        </g>
        <g transform="matrix(1.21971,0,0,1.21971,94.9126,-25.9938)">
            <path d="M114.499,65.264C112.175,61.852 107.81,62.281 103.582,62.297C99.146,62.313 94.849,62.565 92.908,66.044C95.41,63.914 99.484,63.719 103.668,63.691C107.657,63.664 111.758,63.344 114.499,65.264Z" style="fill:white;"/>
        </g>
        <g transform="matrix(1.21971,0,0,1.21971,94.9126,-25.9938)">
            <path d="M134.17,20.648C134.176,20.656 138.042,20.653 140.123,21.76C139.442,21.795 137.978,22.034 137.474,22.69C138.158,22.458 141.105,23.623 142.077,24.476C140.525,24.411 139.176,24.612 138.018,25.062C141.011,27.369 143.109,30.1 144.914,32.97C144.914,32.97 149.49,26.921 149.879,20.519C150.287,13.775 146.887,11.271 144.742,11.155C140.289,10.914 138.285,19.284 134.17,20.648Z" style="fill:rgb(140,69,48);"/>
        </g>
        <g transform="matrix(1.21971,0,0,1.21971,94.9126,-25.9938)">
            <path d="M18.94,178.643C21.031,172.991 23.574,167.5 26.262,162.372C30.639,154.023 35.766,145.937 41.406,138.383C45.443,132.976 50.002,127.431 54.929,122.701C56.61,118.293 59.604,113.857 64.292,109.135C64.776,113.605 65.39,117.509 67.069,121.619C69.065,126.504 73.074,131.627 78.862,137.528C86.86,145.684 95.716,152.983 103.74,161.156C109.942,167.473 115.751,174.335 119.997,182.018C122.07,172.447 125.931,163.857 130.675,154.945C139.867,137.67 143.177,129.413 144.198,121.169C144.758,116.651 144.618,112.045 144.456,107.498C152.407,114.054 157.284,118.904 159.871,126.829C167.018,135.319 173.878,144.227 179.955,153.512C183.067,158.265 187.059,164.752 190.262,171.725L165.674,171.766C167.923,181.069 169.806,190.452 171.239,199.878C153.69,216.906 129.758,227.392 103.374,227.392C67.291,227.392 35.791,207.783 18.94,178.643Z" style="fill:rgb(148,171,179);"/>
        </g>
        <g transform="matrix(1.21971,0,0,1.21971,94.9126,-25.9938)">
            <path d="M160.179,158.056C164.673,173.966 167.688,188.362 169.619,201.413C158.307,211.901 144.502,219.737 129.193,223.933C128.823,218.692 128.304,213.114 127.599,207.14L126.096,198.771C125.67,196.4 125.077,194.101 124.34,191.868C127.633,186.405 132.017,181.381 136.917,177.331C139.892,174.872 144.852,171.38 148.709,170.613L150.395,170.277L150.155,168.575C149.661,165.068 148.638,161.606 147.391,158.246C150.413,160.274 153.221,162.6 155.803,165.196L158.165,167.57L158.871,164.297C159.319,162.218 159.767,160.138 160.179,158.056ZM53.717,126.881C42.25,138.928 27.647,160.196 20.327,180.962C32.29,200.386 50.875,215.292 72.935,222.539C67.024,216.787 60.819,210.434 58.357,204.758C57.598,203.007 60.371,202.566 60.431,200.928C60.481,199.558 56.55,198.853 57.185,197.408C58.519,194.372 62.069,189.696 64.529,183.643L64.529,183.644C66.299,179.582 66.899,181.485 66.19,183.887C65.407,186.542 63.354,190.792 62.412,192.395C61.498,193.951 60.363,195.67 59.519,197.335C59.638,197.404 59.748,197.466 59.828,197.512C61.168,198.296 62.573,199.239 62.509,201.004C62.492,201.47 62.382,201.922 62.189,202.346C61.863,203.058 61.362,203.576 60.783,204.082C60.702,204.152 60.576,204.254 60.457,204.358C62.717,209.212 67.709,214.4 71.409,218.115C73.343,220.056 75.318,221.952 77.286,223.857C85.589,226.159 94.337,227.392 103.374,227.392C111.745,227.392 119.868,226.333 127.62,224.347C126.887,215.685 125.661,208.039 124.014,201.892L122.803,200.119C115.112,188.859 96.109,179.886 83.092,177.248L81.679,176.961L81.635,175.52C81.493,170.84 83.061,167.87 84.713,164.394C79.544,166.712 74.691,169.648 70.319,173.301L68.547,174.783L67.522,172.712C66.526,170.7 65.529,168.687 64.553,166.666C61.572,160.498 58.636,153.919 56.353,147.471C53.691,139.95 52.415,133.36 53.717,126.881ZM119.448,215.28C121.106,215.28 122.45,216.624 122.45,218.282C122.45,219.94 121.106,221.283 119.448,221.283C117.791,221.283 116.446,219.94 116.446,218.282C116.446,216.624 117.791,215.28 119.448,215.28Z" style="fill:white;"/>
        </g>
        <g transform="matrix(1.21971,0,0,1.21971,94.9126,-25.9938)">
            <path d="M132.231,223.044L135.425,216.221L143.84,218.615C140.091,220.328 136.216,221.81 132.231,223.044Z" style="fill:rgb(240,242,247);"/>
        </g>
        <g transform="matrix(1.21971,0,0,1.21971,94.9126,-25.9938)">
            <path d="M66.34,181.403C66.34,181.403 67.739,180.788 67.569,183.699C67.4,186.609 61.85,196.93 62.595,197.337C63.339,197.743 64.963,200.179 64.49,201.939C64.016,203.699 63.678,204.985 63.678,204.985C63.678,204.985 64.067,207.358 64.648,210.76C62.953,208.663 61.444,206.478 60.457,204.358C60.576,204.254 60.702,204.152 60.783,204.082C61.362,203.576 61.863,203.058 62.189,202.346C62.382,201.922 62.492,201.47 62.509,201.004C62.573,199.239 61.168,198.296 59.828,197.512C59.748,197.466 59.638,197.404 59.519,197.335C60.363,195.67 61.498,193.951 62.412,192.395C63.354,190.792 65.407,186.542 66.19,183.887C66.522,182.763 66.567,181.749 66.34,181.403Z" style="fill:rgb(240,242,247);"/>
        </g>
        <g transform="matrix(1.21971,0,0,1.21971,94.9126,-25.9938)">
            <path d="M83.679,82.503C84.114,84.117 85.864,87.767 91.511,89.927C97.224,92.111 108.194,92.212 114.158,90.589C121.438,88.607 123.547,84.297 124.029,82.503C124.436,80.99 125.398,81.069 125.155,82.602C124.804,84.827 123.516,90.496 115.019,92.946C108.682,94.775 96.377,94.675 90.374,92.131C83.947,89.408 82.87,84.607 82.553,82.602C82.311,81.069 83.273,80.99 83.679,82.503Z" style="fill-rule:nonzero;"/>
        </g>
        <g transform="matrix(1.21971,0,0,1.21971,94.9126,-25.9938)">
            <path d="M145.438,110.525C165.565,127.119 160.426,148.469 157.092,163.913C153.06,159.859 148.584,156.521 143.672,153.891C145.833,158.917 147.662,163.917 148.354,168.828C142.407,170.012 131.106,177.923 123.563,189.678C122.905,187.941 122.161,186.244 121.342,184.586C126.996,153.781 151.002,137.063 145.438,110.525Z" style="fill:white;"/>
        </g>
        <g transform="matrix(1.21971,0,0,1.21971,94.9126,-25.9938)">
            <path d="M53.717,126.881C42.25,138.928 27.647,160.196 20.327,180.962C23.195,185.618 26.442,190.014 30.027,194.107C34.281,179.273 50.719,150.988 55.089,143.606C53.323,137.648 52.644,132.226 53.717,126.881Z" style="fill:rgb(240,242,247);"/>
        </g>
        <g transform="matrix(1.21971,0,0,1.21971,94.9126,-25.9938)">
            <path d="M63.536,112.44C47.588,128.506 59.705,152.824 69.153,171.906C74.584,167.365 80.919,163.738 88.146,161.013C85.986,166.913 83.274,169.565 83.453,175.464C94.807,177.766 115.581,186.32 124.305,199.093C117.223,159.667 62.214,139.921 63.536,112.44Z" style="fill:white;"/>
        </g>
        <g transform="matrix(1.21971,0,0,1.21971,94.9126,-25.9938)">
            <path d="M63.536,112.44C53.293,122.757 54.628,136.48 59.395,150.032C58.956,145.607 58.352,137.621 59.102,132.693C59.85,127.786 62.924,123.014 64.752,120.534C63.849,117.896 63.403,115.208 63.536,112.44Z" style="fill:rgb(240,242,247);"/>
        </g>
        <g transform="matrix(1.21971,0,0,1.21971,94.9126,-25.9938)">
            <path d="M85.341,44.211C82.048,44.393 79.525,47.209 79.707,50.501C79.888,53.794 82.705,56.317 85.997,56.136C89.291,55.955 91.813,53.138 91.632,49.845C91.451,46.552 88.634,44.029 85.341,44.211Z" style="fill:white;"/>
        </g>
        <g transform="matrix(1.21971,0,0,1.21971,94.9126,-25.9938)">
            <path d="M85.562,45.911C82.738,46.067 80.575,48.482 80.73,51.306C80.886,54.129 83.301,56.293 86.125,56.137C88.949,55.982 91.112,53.567 90.956,50.743C90.801,47.919 88.385,45.756 85.562,45.911Z"/>
        </g>
        <g transform="matrix(1.21971,0,0,1.21971,94.9126,-25.9938)">
            <path d="M87.429,46.821C86.24,46.886 85.328,47.904 85.394,49.094C85.459,50.283 86.477,51.195 87.666,51.13C88.857,51.064 89.768,50.046 89.703,48.857C89.637,47.666 88.619,46.755 87.429,46.821Z" style="fill:white;"/>
        </g>
        <g transform="matrix(1.21971,0,0,1.21971,94.9126,-25.9938)">
            <path d="M122.368,44.211C125.661,44.393 128.183,47.209 128.002,50.501C127.821,53.794 125.005,56.317 121.711,56.136C118.418,55.955 115.896,53.138 116.077,49.845C116.258,46.552 119.075,44.029 122.368,44.211Z" style="fill:white;"/>
        </g>
        <g transform="matrix(1.21971,0,0,1.21971,94.9126,-25.9938)">
            <path d="M121.483,45.911C118.659,46.067 116.496,48.482 116.651,51.306C116.807,54.129 119.222,56.293 122.046,56.137C124.87,55.982 127.033,53.567 126.878,50.743C126.722,47.919 124.307,45.756 121.483,45.911Z"/>
        </g>
        <g transform="matrix(1.21971,0,0,1.21971,94.9126,-25.9938)">
            <path d="M123.351,46.821C122.161,46.886 121.249,47.904 121.315,49.094C121.381,50.283 122.398,51.195 123.588,51.13C124.778,51.064 125.689,50.046 125.624,48.857C125.558,47.666 124.541,46.755 123.351,46.821Z" style="fill:white;"/>
        </g>
        <g transform="matrix(1.21971,0,0,1.21971,94.9126,-25.9938)">
            <path d="M81.206,32.973C82.629,32.28 87.175,31.453 89.957,33.054C91.175,33.755 91.574,32.492 90.966,31.538C88.905,28.307 82.914,29.019 80.665,31.945C79.828,33.034 79.827,33.643 81.206,32.973ZM126.503,32.973C125.079,32.28 120.534,31.453 117.752,33.054C116.534,33.755 116.135,32.492 116.744,31.538C118.804,28.307 124.795,29.019 127.044,31.945C127.881,33.034 127.882,33.643 126.503,32.973Z" style="fill-rule:nonzero;"/>
        </g>
        <g transform="matrix(1.21971,0,0,1.21971,94.9126,-25.9938)">
            <path d="M160.961,130.987C169.92,141.883 181.434,157.271 188.239,171.725L165.674,171.766C164.234,165.811 162.644,159.888 160.925,154.009C161.832,148.62 162.244,143.624 161.922,138.418C161.81,136.608 161.615,134.772 161.31,132.887C161.206,132.248 161.079,131.622 160.961,130.987Z" style="fill:white;"/>
        </g>
        <g transform="matrix(1.21971,0,0,1.21971,94.9126,-25.9938)">
            <path d="M220.102,158.233L152.541,148.853L127.619,228.478L186.013,235.736L220.102,158.233Z" style="fill:rgb(140,69,48);"/>
        </g>
        <g transform="matrix(1.21971,0,0,1.21971,94.9126,-25.9938)">
            <path d="M205.131,192.271L202.425,198.119C199.283,196.88 184.308,191.268 185.741,200.59C185.741,200.59 181.813,200.311 181.239,203.901C180.665,207.492 182.926,210.283 182.926,210.283C182.926,210.283 178.356,211.855 180.612,217.195C182.342,221.288 190.141,225.051 197.574,224.9C215.065,224.545 216.94,202.403 205.131,192.271Z" style="fill:rgb(186,110,66);"/>
        </g>
        <g transform="matrix(1.21971,0,0,1.21971,94.9126,-25.9938)">
            <path d="M180.612,217.195C182.342,221.288 190.141,225.051 197.574,224.9C206.765,224.713 211.553,218.432 212.316,211.044C210.441,215.819 207.392,220.583 202.493,221.973C191.521,225.086 180.612,217.195 180.612,217.195Z" style="fill:rgb(173,97,54);"/>
        </g>
        <g transform="matrix(1.21971,0,0,1.21971,94.9126,-25.9938)">
            <path d="M173.28,155.992C175.883,151.261 177.089,149.819 183.284,150.069C183.921,142.636 193.881,143.386 192.248,151.248C197.52,151.979 198.831,154.371 199.205,159.437L173.28,155.992Z" style="fill:rgb(51,51,51);"/>
        </g>
        <g transform="matrix(1.21971,0,0,1.21971,94.9126,-25.9938)">
            <path d="M202.425,198.119C202.425,198.119 204.584,199.196 204.923,198.993C205.263,198.79 202.988,196.902 202.988,196.902L202.425,198.119Z" style="fill:rgb(173,97,54);"/>
        </g>
        <g transform="matrix(0.573176,-0.0168217,0.0168217,0.573176,143.921,157.298)">
            <path d="M361.249,39.301L312.037,49.025L321.134,60.905L296.434,80.024L265.877,62.164L220.517,100.137L230.123,111.547L267.363,80.359L297.607,97.88L330.337,72.599L339.484,84.486L361.249,39.301Z" style="fill:rgb(242,204,158);fill-opacity:0.3;"/>
        </g>
    </g>
</svg>
